<?xml version="1.0" encoding="utf-8"?>
<!-- Generator: Adobe Illustrator 27.0.1, SVG Export Plug-In . SVG Version: 6.00 Build 0)  -->
<svg version="1.1" id="Calque_1" xmlns="http://www.w3.org/2000/svg" xmlns:xlink="http://www.w3.org/1999/xlink" x="0px" y="0px"
	 viewBox="0 0 574.17 595.28" style="enable-background:new 0 0 574.17 595.28;" xml:space="preserve">
<style type="text/css">
	.st0{fill:url(#SVGID_1_);}
	.st1{fill:#FFFFFF;}
</style>
<linearGradient id="SVGID_1_" gradientUnits="userSpaceOnUse" x1="-5.2758" y1="5.2076" x2="579.4481" y2="589.9315">
	<stop  offset="0" style="stop-color:#F8AAFF"/>
	<stop  offset="1" style="stop-color:#7F00FF"/>
</linearGradient>
<rect y="-0.07" class="st0" width="574.17" height="595.28"/>
<g>
	<g>
		<g>
			<path class="st1" d="M315.65,211.97c-15.92,0-28.83,12.9-28.83,28.82c0-15.92-12.9-28.82-28.83-28.82
				c15.92,0,28.83-12.91,28.83-28.83C286.82,199.07,299.72,211.97,315.65,211.97z"/>
		</g>
	</g>
	<g>
		<g>
			<path class="st1" d="M286.82,286.1c-19.8,0-38.41-7.71-52.41-21.71c-14-14-21.71-32.61-21.71-52.41
				c0-19.8,7.71-38.41,21.71-52.41c14-14,32.61-21.71,52.41-21.71c19.8,0,38.41,7.71,52.41,21.71c14,14,21.71,32.61,21.71,52.41
				c0,19.8-7.71,38.41-21.71,52.41C325.23,278.39,306.62,286.1,286.82,286.1z M286.82,142.31c-18.61,0-36.1,7.25-49.26,20.4
				c-13.16,13.16-20.4,30.65-20.4,49.26c0,18.61,7.25,36.1,20.4,49.26c13.16,13.16,30.65,20.4,49.26,20.4
				c18.61,0,36.1-7.25,49.26-20.4c13.16-13.16,20.4-30.65,20.4-49.26c0-18.61-7.25-36.1-20.4-49.26
				C322.92,149.56,305.43,142.31,286.82,142.31z"/>
		</g>
	</g>
	<g>
		<g>
			<path class="st1" d="M286.82,274.77c-34.63,0-62.8-28.17-62.8-62.8s28.17-62.8,62.8-62.8s62.8,28.17,62.8,62.8
				S321.45,274.77,286.82,274.77z M286.82,153.64c-32.16,0-58.33,26.17-58.33,58.33s26.17,58.33,58.33,58.33
				s58.33-26.17,58.33-58.33S318.99,153.64,286.82,153.64z"/>
		</g>
	</g>
	<g>
		<g>
			<rect x="284.59" y="283.86" class="st1" width="4.46" height="46.07"/>
		</g>
	</g>
	<g>
		<g>
			<rect x="230.79" y="259.66" class="st1" width="4.46" height="37.63"/>
		</g>
	</g>
	<g>
		<g>
			<rect x="338.39" y="259.66" class="st1" width="4.46" height="37.63"/>
		</g>
	</g>
</g>
<g>
	<path class="st1" d="M300.85,339.2l-8.7-8.7c-3.04-3.04-7.99-3.04-11.04,0l-8.7,8.7c-1.47,1.47-2.29,3.43-2.29,5.52
		c0,2.08,0.81,4.04,2.29,5.52l8.7,8.7c1.47,1.47,3.43,2.29,5.52,2.29c2.08,0,4.04-0.81,5.52-2.29l8.7-8.7
		C303.89,347.2,303.89,342.25,300.85,339.2z M298.16,347.55l-8.7,8.7c-0.76,0.76-1.76,1.17-2.83,1.17c-1.07,0-2.07-0.42-2.83-1.17
		l-8.7-8.7c-0.76-0.76-1.17-1.76-1.17-2.83s0.42-2.07,1.17-2.83l8.7-8.7c0.78-0.78,1.8-1.17,2.83-1.17s2.05,0.39,2.83,1.17l8.7,8.7
		C299.72,343.45,299.72,345.99,298.16,347.55z"/>
</g>
<g>
	<path class="st1" d="M247.24,306.37l-8.7-8.7c-3.04-3.04-7.99-3.04-11.03,0l-8.7,8.7c-1.47,1.47-2.29,3.43-2.29,5.52
		c0,2.08,0.81,4.04,2.29,5.52l8.7,8.7c1.47,1.47,3.43,2.29,5.52,2.29c2.08,0,4.04-0.81,5.52-2.29l8.7-8.7
		c1.47-1.47,2.29-3.43,2.29-5.52C249.52,309.8,248.71,307.84,247.24,306.37z M244.55,314.72l-8.7,8.7
		c-0.76,0.76-1.76,1.17-2.83,1.17c-1.07,0-2.07-0.42-2.83-1.17l-8.7-8.7c-0.76-0.76-1.17-1.76-1.17-2.83s0.42-2.07,1.17-2.83
		l8.7-8.7c0.78-0.78,1.8-1.17,2.83-1.17c1.02,0,2.05,0.39,2.83,1.17l8.7,8.7c0.76,0.76,1.17,1.76,1.17,2.83
		S245.3,313.96,244.55,314.72z"/>
</g>
<g>
	<path class="st1" d="M354.83,306.37l-8.7-8.7c-3.04-3.04-7.99-3.04-11.03,0l-8.7,8.7c-3.04,3.04-3.04,7.99,0,11.03l8.7,8.7
		c1.47,1.47,3.43,2.29,5.52,2.29s4.04-0.81,5.52-2.29l8.7-8.7c1.47-1.47,2.29-3.43,2.29-5.52
		C357.12,309.8,356.31,307.84,354.83,306.37z M352.15,314.71l-8.7,8.7c-0.76,0.76-1.76,1.17-2.83,1.17c-1.07,0-2.07-0.42-2.83-1.17
		l-8.7-8.7c-1.56-1.56-1.56-4.1,0-5.66l8.7-8.7c0.76-0.76,1.76-1.17,2.83-1.17c1.07,0,2.07,0.42,2.83,1.17l8.7,8.7
		c0.76,0.76,1.17,1.76,1.17,2.83S352.9,313.96,352.15,314.71z"/>
</g>
<path class="st1" d="M233.02,341.35L233.02,341.35c-1.23,0-2.23-1-2.23-2.23v-11.18c0-1.23,1-2.23,2.23-2.23l0,0
	c1.23,0,2.23,1,2.23,2.23v11.18C235.25,340.35,234.25,341.35,233.02,341.35z"/>
<path class="st1" d="M340.62,341.35L340.62,341.35c-1.23,0-2.23-1-2.23-2.23v-11.18c0-1.23,1-2.23,2.23-2.23h0
	c1.23,0,2.23,1,2.23,2.23v11.18C342.85,340.35,341.85,341.35,340.62,341.35z"/>
<path class="st1" d="M286.63,373.32L286.63,373.32c-1.23,0-2.23-1-2.23-2.23v-11.18c0-1.23,1-2.23,2.23-2.23l0,0
	c1.23,0,2.23,1,2.23,2.23v11.18C288.87,372.32,287.87,373.32,286.63,373.32z"/>
<g>
	<path class="st1" d="M161.96,446.7v-31.28c0-0.31,0.15-0.46,0.46-0.46h11.13c3.19,0,5.73,0.84,7.64,2.51
		c1.9,1.67,2.85,3.9,2.85,6.69v13.8c0,2.79-0.95,5.02-2.85,6.69c-1.9,1.67-4.45,2.51-7.64,2.51h-11.13
		C162.12,447.16,161.96,447.01,161.96,446.7z M166.56,443.35h7.18c1.78,0,3.2-0.54,4.26-1.63c1.06-1.09,1.6-2.55,1.63-4.39v-12.51
		c0-1.84-0.53-3.3-1.59-4.39c-1.06-1.09-2.49-1.63-4.3-1.63h-7.18c-0.12,0-0.18,0.06-0.18,0.18v24.2
		C166.38,443.29,166.44,443.35,166.56,443.35z"/>
	<path class="st1" d="M204.19,446.7v-31.28c0-0.31,0.15-0.46,0.46-0.46h3.5c0.31,0,0.46,0.15,0.46,0.46v31.28
		c0,0.31-0.15,0.46-0.46,0.46h-3.5C204.34,447.16,204.19,447.01,204.19,446.7z"/>
	<path class="st1" d="M237.54,446.8l-9.84-31.33l-0.05-0.18c0-0.21,0.14-0.32,0.41-0.32h3.73c0.28,0,0.46,0.12,0.55,0.37l7.59,25.44
		c0.03,0.06,0.08,0.09,0.14,0.09c0.06,0,0.11-0.03,0.14-0.09l7.59-25.44c0.09-0.25,0.26-0.37,0.51-0.37h3.63
		c0.34,0,0.46,0.17,0.37,0.51l-9.94,31.33c-0.09,0.25-0.28,0.37-0.55,0.37h-3.73C237.82,447.16,237.63,447.04,237.54,446.8z"/>
	<path class="st1" d="M271.4,446.7v-31.28c0-0.31,0.15-0.46,0.46-0.46h3.5c0.31,0,0.46,0.15,0.46,0.46v31.28
		c0,0.31-0.15,0.46-0.46,0.46h-3.5C271.55,447.16,271.4,447.01,271.4,446.7z"/>
	<path class="st1" d="M316.57,414.96h3.5c0.31,0,0.46,0.15,0.46,0.46v31.28c0,0.31-0.15,0.46-0.46,0.46h-3.36
		c-0.21,0-0.4-0.11-0.55-0.32l-14.4-23.51c-0.03-0.09-0.08-0.13-0.14-0.11c-0.06,0.02-0.09,0.07-0.09,0.16l0.05,23.32
		c0,0.31-0.15,0.46-0.46,0.46h-3.5c-0.31,0-0.46-0.15-0.46-0.46v-31.28c0-0.31,0.15-0.46,0.46-0.46h3.4c0.21,0,0.4,0.11,0.55,0.32
		l14.35,23.51c0.03,0.09,0.08,0.13,0.14,0.12c0.06-0.02,0.09-0.07,0.09-0.16l-0.05-23.32C316.11,415.12,316.26,414.96,316.57,414.96
		z"/>
	<path class="st1" d="M341.91,446.7v-31.28c0-0.31,0.15-0.46,0.46-0.46h3.5c0.31,0,0.46,0.15,0.46,0.46v31.28
		c0,0.31-0.15,0.46-0.46,0.46h-3.5C342.07,447.16,341.91,447.01,341.91,446.7z"/>
	<path class="st1" d="M388.6,415.42v2.94c0,0.31-0.15,0.46-0.46,0.46h-8.83c-0.12,0-0.18,0.06-0.18,0.18v27.69
		c0,0.31-0.15,0.46-0.46,0.46h-3.5c-0.31,0-0.46-0.15-0.46-0.46v-27.69c0-0.12-0.06-0.18-0.18-0.18h-8.42
		c-0.31,0-0.46-0.15-0.46-0.46v-2.94c0-0.31,0.15-0.46,0.46-0.46h22.03C388.45,414.96,388.6,415.12,388.6,415.42z"/>
	<path class="st1" d="M407.88,446.7v-31.28c0-0.31,0.15-0.46,0.46-0.46h3.5c0.31,0,0.46,0.15,0.46,0.46v31.28
		c0,0.31-0.15,0.46-0.46,0.46h-3.5C408.03,447.16,407.88,447.01,407.88,446.7z"/>
</g>
</svg>
