<?xml version="1.0" encoding="utf-8"?>
<!-- Generator: Adobe Illustrator 27.0.1, SVG Export Plug-In . SVG Version: 6.00 Build 0)  -->
<svg version="1.1" id="Calque_1" xmlns="http://www.w3.org/2000/svg" xmlns:xlink="http://www.w3.org/1999/xlink" x="0px" y="0px"
	 viewBox="0 0 250.33 309.32" style="enable-background:new 0 0 250.33 309.32;" xml:space="preserve">
<style type="text/css">
	.st0{fill:#7F00FF;}
</style>
<g>
	<g>
		<g>
			<path class="st0" d="M153.68,74.13c-15.92,0-28.83,12.9-28.83,28.82c0-15.92-12.9-28.82-28.83-28.82
				c15.92,0,28.83-12.91,28.83-28.83C124.86,61.22,137.76,74.13,153.68,74.13z"/>
		</g>
	</g>
	<g>
		<g>
			<path class="st0" d="M124.86,148.25c-19.8,0-38.41-7.71-52.41-21.71c-14-14-21.71-32.61-21.71-52.41
				c0-19.8,7.71-38.41,21.71-52.41C86.44,7.71,105.06,0,124.86,0c19.8,0,38.41,7.71,52.41,21.71c14,14,21.71,32.61,21.71,52.41
				c0,19.8-7.71,38.41-21.71,52.41C163.27,140.54,144.66,148.25,124.86,148.25z M124.86,4.46c-18.61,0-36.1,7.25-49.26,20.4
				C62.44,38.02,55.2,55.52,55.2,74.12c0,18.61,7.25,36.1,20.4,49.26c13.16,13.16,30.65,20.4,49.26,20.4s36.1-7.25,49.26-20.4
				c13.16-13.16,20.4-30.65,20.4-49.26c0-18.61-7.25-36.1-20.4-49.26C160.96,11.71,143.46,4.46,124.86,4.46z"/>
		</g>
	</g>
	<g>
		<g>
			<path class="st0" d="M124.86,136.92c-34.63,0-62.8-28.17-62.8-62.8s28.17-62.8,62.8-62.8s62.8,28.17,62.8,62.8
				S159.48,136.92,124.86,136.92z M124.86,15.79c-32.16,0-58.33,26.17-58.33,58.33s26.17,58.33,58.33,58.33s58.33-26.17,58.33-58.33
				S157.02,15.79,124.86,15.79z"/>
		</g>
	</g>
	<g>
		<g>
			<rect x="122.63" y="146.02" class="st0" width="4.46" height="46.07"/>
		</g>
	</g>
	<g>
		<g>
			<rect x="68.83" y="121.81" class="st0" width="4.46" height="37.63"/>
		</g>
	</g>
	<g>
		<g>
			<rect x="176.42" y="121.81" class="st0" width="4.46" height="37.63"/>
		</g>
	</g>
</g>
<g>
	<path class="st0" d="M138.88,201.36l-8.7-8.7c-3.04-3.04-7.99-3.04-11.04,0l-8.7,8.7c-1.47,1.47-2.29,3.43-2.29,5.52
		c0,2.08,0.81,4.04,2.29,5.52l8.7,8.7c1.47,1.47,3.43,2.29,5.52,2.29c2.08,0,4.04-0.81,5.52-2.29l8.7-8.7
		C141.93,209.35,141.93,204.4,138.88,201.36z M136.2,209.7l-8.7,8.7c-0.76,0.76-1.76,1.17-2.83,1.17c-1.07,0-2.07-0.42-2.83-1.17
		l-8.7-8.7c-0.76-0.76-1.17-1.76-1.17-2.83c0-1.07,0.42-2.07,1.17-2.83l8.7-8.7c0.78-0.78,1.8-1.17,2.83-1.17
		c1.02,0,2.05,0.39,2.83,1.17l8.7,8.7C137.76,205.61,137.76,208.14,136.2,209.7z"/>
</g>
<g>
	<path class="st0" d="M85.27,168.52l-8.7-8.7c-3.04-3.04-7.99-3.04-11.03,0l-8.7,8.7c-1.47,1.47-2.29,3.43-2.29,5.52
		c0,2.08,0.81,4.04,2.29,5.52l8.7,8.7c1.47,1.47,3.43,2.29,5.52,2.29s4.04-0.81,5.52-2.29l8.7-8.7c1.47-1.47,2.29-3.43,2.29-5.52
		C87.56,171.96,86.75,170,85.27,168.52z M82.58,176.87l-8.7,8.7c-0.76,0.76-1.76,1.17-2.83,1.17s-2.07-0.42-2.83-1.17l-8.7-8.7
		c-0.76-0.76-1.17-1.76-1.17-2.83c0-1.07,0.42-2.07,1.17-2.83l8.7-8.7c0.78-0.78,1.8-1.17,2.83-1.17c1.02,0,2.05,0.39,2.83,1.17
		l8.7,8.7c0.76,0.76,1.17,1.76,1.17,2.83C83.76,175.11,83.34,176.11,82.58,176.87z"/>
</g>
<g>
	<path class="st0" d="M192.87,168.52l-8.7-8.7c-3.04-3.04-7.99-3.04-11.03,0l-8.7,8.7c-3.04,3.04-3.04,7.99,0,11.03l8.7,8.7
		c1.47,1.47,3.43,2.29,5.52,2.29c2.08,0,4.04-0.81,5.52-2.29l8.7-8.7c1.47-1.47,2.29-3.43,2.29-5.52
		C195.16,171.96,194.34,170,192.87,168.52z M190.18,176.87l-8.7,8.7c-0.76,0.76-1.76,1.17-2.83,1.17c-1.07,0-2.07-0.42-2.83-1.17
		l-8.7-8.7c-1.56-1.56-1.56-4.1,0-5.66l8.7-8.7c0.76-0.76,1.76-1.17,2.83-1.17c1.07,0,2.07,0.42,2.83,1.17l8.7,8.7
		c0.76,0.76,1.17,1.76,1.17,2.83C191.35,175.11,190.94,176.11,190.18,176.87z"/>
</g>
<path class="st0" d="M71.06,203.5L71.06,203.5c-1.23,0-2.23-1-2.23-2.23v-11.18c0-1.23,1-2.23,2.23-2.23l0,0
	c1.23,0,2.23,1,2.23,2.23v11.18C73.29,202.5,72.29,203.5,71.06,203.5z"/>
<path class="st0" d="M178.66,203.5L178.66,203.5c-1.23,0-2.23-1-2.23-2.23v-11.18c0-1.23,1-2.23,2.23-2.23l0,0
	c1.23,0,2.23,1,2.23,2.23v11.18C180.89,202.5,179.89,203.5,178.66,203.5z"/>
<path class="st0" d="M124.67,235.47L124.67,235.47c-1.23,0-2.23-1-2.23-2.23v-11.18c0-1.23,1-2.23,2.23-2.23h0
	c1.23,0,2.23,1,2.23,2.23v11.18C126.9,234.47,125.9,235.47,124.67,235.47z"/>
<g>
	<path class="st0" d="M0,308.86v-31.28c0-0.31,0.15-0.46,0.46-0.46h11.13c3.19,0,5.73,0.84,7.64,2.51c1.9,1.67,2.85,3.9,2.85,6.69
		v13.8c0,2.79-0.95,5.02-2.85,6.69c-1.9,1.67-4.45,2.51-7.64,2.51H0.46C0.15,309.32,0,309.17,0,308.86z M4.6,305.5h7.18
		c1.78,0,3.2-0.54,4.26-1.63c1.06-1.09,1.6-2.55,1.63-4.39v-12.51c0-1.84-0.53-3.3-1.59-4.39c-1.06-1.09-2.49-1.63-4.3-1.63H4.6
		c-0.12,0-0.18,0.06-0.18,0.18v24.2C4.42,305.44,4.48,305.5,4.6,305.5z"/>
	<path class="st0" d="M42.23,308.86v-31.28c0-0.31,0.15-0.46,0.46-0.46h3.5c0.31,0,0.46,0.15,0.46,0.46v31.28
		c0,0.31-0.15,0.46-0.46,0.46h-3.5C42.38,309.32,42.23,309.17,42.23,308.86z"/>
	<path class="st0" d="M75.58,308.95l-9.84-31.33l-0.05-0.18c0-0.21,0.14-0.32,0.41-0.32h3.73c0.28,0,0.46,0.12,0.55,0.37l7.59,25.44
		c0.03,0.06,0.08,0.09,0.14,0.09c0.06,0,0.11-0.03,0.14-0.09l7.59-25.44c0.09-0.25,0.26-0.37,0.51-0.37h3.63
		c0.34,0,0.46,0.17,0.37,0.51l-9.94,31.33c-0.09,0.25-0.28,0.37-0.55,0.37h-3.73C75.85,309.32,75.67,309.2,75.58,308.95z"/>
	<path class="st0" d="M109.43,308.86v-31.28c0-0.31,0.15-0.46,0.46-0.46h3.5c0.31,0,0.46,0.15,0.46,0.46v31.28
		c0,0.31-0.15,0.46-0.46,0.46h-3.5C109.59,309.32,109.43,309.17,109.43,308.86z"/>
	<path class="st0" d="M154.61,277.12h3.5c0.31,0,0.46,0.15,0.46,0.46v31.28c0,0.31-0.15,0.46-0.46,0.46h-3.36
		c-0.21,0-0.4-0.11-0.55-0.32l-14.4-23.51c-0.03-0.09-0.08-0.13-0.14-0.11c-0.06,0.02-0.09,0.07-0.09,0.16l0.05,23.32
		c0,0.31-0.15,0.46-0.46,0.46h-3.5c-0.31,0-0.46-0.15-0.46-0.46v-31.28c0-0.31,0.15-0.46,0.46-0.46h3.4c0.21,0,0.4,0.11,0.55,0.32
		l14.35,23.51c0.03,0.09,0.08,0.13,0.14,0.12c0.06-0.02,0.09-0.07,0.09-0.16l-0.05-23.32C154.15,277.27,154.3,277.12,154.61,277.12z
		"/>
	<path class="st0" d="M179.95,308.86v-31.28c0-0.31,0.15-0.46,0.46-0.46h3.5c0.31,0,0.46,0.15,0.46,0.46v31.28
		c0,0.31-0.15,0.46-0.46,0.46h-3.5C180.1,309.32,179.95,309.17,179.95,308.86z"/>
	<path class="st0" d="M226.64,277.58v2.94c0,0.31-0.15,0.46-0.46,0.46h-8.83c-0.12,0-0.18,0.06-0.18,0.18v27.69
		c0,0.31-0.15,0.46-0.46,0.46h-3.5c-0.31,0-0.46-0.15-0.46-0.46v-27.69c0-0.12-0.06-0.18-0.18-0.18h-8.42
		c-0.31,0-0.46-0.15-0.46-0.46v-2.94c0-0.31,0.15-0.46,0.46-0.46h22.03C226.49,277.12,226.64,277.27,226.64,277.58z"/>
	<path class="st0" d="M245.91,308.86v-31.28c0-0.31,0.15-0.46,0.46-0.46h3.5c0.31,0,0.46,0.15,0.46,0.46v31.28
		c0,0.31-0.15,0.46-0.46,0.46h-3.5C246.07,309.32,245.91,309.17,245.91,308.86z"/>
</g>
</svg>
